#!OML:ASF H:\Punching\Project 1\Capture day 1\Session 1\female.ASF
:FULLY-SPECIFIED
:DEGREES
2219
root -0.108695 15.7381 5.81566 11.8396 0.418095 2.47132
lowerback -3.29644 -1.09179 0.147307
upperback -6.87628 -1.46487 -0.0218806
thorax -5.26931 -0.741281 -0.0848653
lowerneck -11.3413 3.18275 9.39005
upperneck 32.6614 3.61493 -4.09515
head 13.0758 2.23223 -2.71713
rclavicle 3.08116e-015 -3.18055e-015
rhumerus -56.8831 -30.5799 -46.7422
rradius 22.523
rwrist 8.469
rhand -22.3273 -13.5024
rfingers 7.12502
rthumb 4.09269 -43.4428
lclavicle 3.08116e-015 -3.18055e-015
lhumerus -57.5991 24.6545 59.1558
lradius 28.1397
lwrist -5.28922
lhand -9.7278 26.7988
lfingers 7.12502
lthumb 16.2458 56.1382
rfemur -15 6.4612 12.9731
rtibia 27.8523
rfoot -27.3815 -24.732
rtoes -1.01747
lfemur -14.2704 -15.1496 -16.932
ltibia 18.6243
lfoot -13.9716 19.079
ltoes -2.71558
2220
root -0.0929062 15.7387 5.81659 11.8417 0.392239 2.51365
lowerback -3.3124 -1.08019 0.12113
upperback -6.86453 -1.45 -0.0379529
thorax -5.24748 -0.732998 -0.0875832
lowerneck -11.4068 3.19818 9.37366
upperneck 32.6168 3.63027 -4.08216
head 13.0715 2.23719 -2.70544
rclavicle -3.27995e-015 5.1684e-015
rhumerus -57.1069 -30.3879 -47.5267
rradius 22.7051
rwrist 7.1727
rhand -22.4147 -13.7175
rfingers 7.12502
rthumb 4.00829 -43.6595
lclavicle -3.27995e-015 5.1684e-015
lhumerus -57.7065 24.4402 59.8094
lradius 28.4877
lwrist -3.35217
lhand -9.95536 27.1646
lfingers 7.12502
lthumb 16.0266 56.5218
rfemur -15.0055 6.73422 12.8338
rtibia 27.8236
rfoot -27.2388 -24.3308
rtoes -1.4303
lfemur -14.2743 -15.0401 -17.0606
ltibia 18.6305
lfoot -13.9498 18.9885
ltoes -2.68158
2221
root -0.0787392 15.7393 5.81738 11.8346 0.37821 2.55516
lowerback -3.32285 -1.08155 0.0907391
upperback -6.84963 -1.45236 -0.0509558
thorax -5.22534 -0.73302 -0.0844548
lowerneck -11.4701 3.22053 9.36668
upperneck 32.5939 3.65847 -4.08289
head 13.0777 2.2476 -2.69936
rclavicle -1.37658e-014 -3.97569e-016
rhumerus -57.2539 -30.2578 -48.2324
rradius 22.8206
rwrist 6.09825
rhand -22.4403 -13.9131
rfingers 7.12502
rthumb 3.98364 -43.8556
lclavicle -1.37658e-014 -3.97569e-016
lhumerus -57.784 24.2868 60.3254
lradius 28.7297
lwrist -1.97511
lhand -9.99358 27.4612
lfingers 7.12502
lthumb 15.9898 56.8212
rfemur -15.0067 7.00485 12.6948
rtibia 27.7871
rfoot -26.8769 -23.9829
rtoes -1.69293
lfemur -14.2653 -14.9107 -17.1854
ltibia 18.6254
lfoot -13.9182 18.8736
ltoes -2.66117
2222
root -0.0660261 15.7401 5.81796 11.8194 0.372508 2.59135
lowerback -3.32268 -1.09231 0.0625018
upperback -6.83999 -1.4672 -0.061084
thorax -5.21482 -0.739307 -0.0790949
lowerneck -11.5137 3.24638 9.36963
upperneck 32.5917 3.69579 -4.09617
head 13.0898 2.2622 -2.69917
rclavicle 1.49089e-015 -1.15295e-014
rhumerus -57.3602 -30.2085 -48.7907
rradius 22.8436
rwrist 5.39594
rhand -22.355 -13.9762
rfingers 7.12502
rthumb 4.06597 -43.9171
lclavicle 1.49089e-015 -1.15295e-014
lhumerus -57.8486 24.1862 60.689
lradius 28.8479
lwrist -1.26694
lhand -9.80763 27.6664
lfingers 7.12502
lthumb 16.1689 57.0121
rfemur -15.0081 7.24273 12.5639
rtibia 27.7468
rfoot -26.2635 -23.7548
rtoes -1.80312
lfemur -14.2432 -14.7669 -17.3014
ltibia 18.6061
lfoot -13.8732 18.744
ltoes -2.65876
2223
root -0.0546551 15.7413 5.81843 11.799 0.371204 2.62043
lowerback -3.31811 -1.11064 0.0392093
upperback -6.83272 -1.49208 -0.0684867
thorax -5.20939 -0.750786 -0.0734201
lowerneck -11.5514 3.2769 9.38356
upperneck 32.6141 3.74276 -4.12324
head 13.1125 2.28111 -2.70542
rclavicle -4.29872e-015 -6.75868e-015
rhumerus -57.4301 -30.255 -49.1768
rradius 22.7591
rwrist 5.17907
rhand -22.1717 -13.9642
rfingers 7.12502
rthumb 4.24298 -43.9017
lclavicle -4.29872e-015 -6.75868e-015
lhumerus -57.8995 24.1416 60.8992
lradius 28.8369
lwrist -1.25111
lhand -9.40364 27.7526
lfingers 7.12502
lthumb 16.5579 57.0661
rfemur -15.0142 7.42915 12.446
rtibia 27.7074
rfoot -25.4531 -23.6286
rtoes -1.62405
lfemur -14.2078 -14.6124 -17.4059
ltibia 18.5682
lfoot -13.816 18.6041
ltoes -2.66667
2224
root -0.0445249 15.7429 5.81883 11.7733 0.370983 2.6419
lowerback -3.30992 -1.13382 0.021849
upperback -6.82649 -1.52339 -0.0739077
thorax -5.20723 -0.765725 -0.0688285
lowerneck -11.5859 3.31041 9.40645
upperneck 32.6576 3.79634 -4.16171
head 13.1448 2.30295 -2.7172
rclavicle 4.4975e-015 -7.55382e-015
rhumerus -57.4541 -30.3704 -49.4241
rradius 22.5825
rwrist 5.47715
rhand -21.9119 -13.9516
rfingers 7.12502
rthumb 4.49383 -43.8839
lclavicle 4.4975e-015 -7.55382e-015
lhumerus -57.927 24.1466 60.9694
lradius 28.7034
lwrist -1.85864
lhand -8.83221 27.7142
lfingers 7.12502
lthumb 17.108 56.981
rfemur -15.0255 7.5592 12.3464
rtibia 27.675
rfoot -24.493 -23.5847
rtoes -1.19649
lfemur -14.1549 -14.4568 -17.4977
ltibia 18.5051
lfoot -13.7448 18.464
ltoes -2.68126
